{
    "asset" : {
        "generator" : "Khronos glTF Blender I/O v3.3.27",
        "version" : "2.0"
    },
    "scene" : 0,
    "scenes" : [
        {
            "name" : "Scene",
            "nodes" : [
                0,
                1,
                2,
                3,
                4,
                6
            ]
        }
    ],
    "nodes" : [
        {
            "mesh" : 0,
            "name" : "apoyo_inf",
            "scale" : [
                0.698482096195221,
                0.698482096195221,
                0.698482096195221
            ],
            "translation" : [
                0,
                1.4439477920532227,
                -0.0378570556640625
            ]
        },
        {
            "mesh" : 1,
            "name" : "apoyo_sup",
            "scale" : [
                0.656891405582428,
                0.656891405582428,
                0.656891405582428
            ],
            "translation" : [
                0,
                1.8048783540725708,
                -0.037857115268707275
            ]
        },
        {
            "name" : "Collada visual scene group",
            "rotation" : [
                0.7071068286895752,
                0,
                0,
                0.7071067094802856
            ]
        },
        {
            "mesh" : 2,
            "name" : "espuma_inf",
            "scale" : [
                0.5858041048049927,
                0.19953574240207672,
                0.5858041048049927
            ],
            "translation" : [
                0,
                1.4764801263809204,
                -0.0378570556640625
            ]
        },
        {
            "mesh" : 3,
            "name" : "espuma_sup",
            "scale" : [
                0.5858041048049927,
                0.19953574240207672,
                0.5858041048049927
            ],
            "translation" : [
                0,
                1.787858486175537,
                -0.037857115268707275
            ]
        },
        {
            "mesh" : 4,
            "name" : "compresometro",
            "rotation" : [
                1,
                0,
                0,
                1.6292068494294654e-07
            ],
            "scale" : [
                1,
                0.40868011116981506,
                1
            ],
            "translation" : [
                -0.004802626557648182,
                -0.09269118309020996,
                -0.12097495794296265
            ]
        },
        {
            "children" : [
                5
            ],
            "mesh" : 5,
            "name" : "cilindroConcreto",
            "translation" : [
                0,
                1.6351712942123413,
                -0.0378570556640625
            ]
        }
    ],
    "materials" : [
        {
            "doubleSided" : true,
            "name" : "MaterialApoyos",
            "pbrMetallicRoughness" : {
                "baseColorFactor" : [
                    0.04927774518728256,
                    0.04927774518728256,
                    0.04927774518728256,
                    1
                ],
                "metallicFactor" : 0.800000011920929,
                "roughnessFactor" : 0.4000000059604645
            }
        },
        {
            "doubleSided" : true,
            "name" : "Material_Espuma",
            "pbrMetallicRoughness" : {
                "baseColorFactor" : [
                    0.23697680234909058,
                    0.23697680234909058,
                    0.23697680234909058,
                    1
                ],
                "metallicFactor" : 0,
                "roughnessFactor" : 0.5
            }
        },
        {
            "doubleSided" : true,
            "name" : "MaterialComp02.001",
            "pbrMetallicRoughness" : {
                "baseColorFactor" : [
                    0.545706570148468,
                    0.545706570148468,
                    0.545706570148468,
                    1
                ],
                "metallicFactor" : 0.8999999761581421,
                "roughnessFactor" : 0.20000000298023224
            }
        },
        {
            "doubleSided" : true,
            "name" : "MaterialComp03.001",
            "pbrMetallicRoughness" : {
                "baseColorFactor" : [
                    0.1476474404335022,
                    0.24338120222091675,
                    0.9402280449867249,
                    1
                ],
                "metallicFactor" : 0.8999999761581421,
                "roughnessFactor" : 0.20000000298023224
            }
        },
        {
            "doubleSided" : true,
            "name" : "MaterialCompresometro.001",
            "pbrMetallicRoughness" : {
                "metallicFactor" : 0.8999999761581421,
                "roughnessFactor" : 0.4000000059604645
            }
        },
        {
            "doubleSided" : true,
            "name" : "MaterialComp04.001",
            "pbrMetallicRoughness" : {
                "baseColorFactor" : [
                    0.07048851996660233,
                    0.07219930738210678,
                    0.07296551764011383,
                    1
                ],
                "metallicFactor" : 0.8999999761581421,
                "roughnessFactor" : 0.10000000149011612
            }
        },
        {
            "doubleSided" : true,
            "name" : "002concretoNodos",
            "pbrMetallicRoughness" : {
                "metallicFactor" : 0,
                "roughnessFactor" : 0.5
            }
        }
    ],
    "meshes" : [
        {
            "name" : "apoyo.inf",
            "primitives" : [
                {
                    "attributes" : {
                        "POSITION" : 0,
                        "NORMAL" : 1,
                        "TEXCOORD_0" : 2
                    },
                    "indices" : 3,
                    "material" : 0
                }
            ]
        },
        {
            "name" : "apoyo.sup",
            "primitives" : [
                {
                    "attributes" : {
                        "POSITION" : 4,
                        "NORMAL" : 5,
                        "TEXCOORD_0" : 6
                    },
                    "indices" : 7,
                    "material" : 0
                }
            ]
        },
        {
            "name" : "apoyo.inf.001",
            "primitives" : [
                {
                    "attributes" : {
                        "POSITION" : 8,
                        "NORMAL" : 9,
                        "TEXCOORD_0" : 10
                    },
                    "indices" : 3,
                    "material" : 1
                }
            ]
        },
        {
            "name" : "apoyo.inf.002",
            "primitives" : [
                {
                    "attributes" : {
                        "POSITION" : 11,
                        "NORMAL" : 12,
                        "TEXCOORD_0" : 13
                    },
                    "indices" : 3,
                    "material" : 1
                }
            ]
        },
        {
            "name" : "Cylinder.013",
            "primitives" : [
                {
                    "attributes" : {
                        "POSITION" : 14,
                        "NORMAL" : 15,
                        "TEXCOORD_0" : 16
                    },
                    "indices" : 17,
                    "material" : 2
                },
                {
                    "attributes" : {
                        "POSITION" : 18,
                        "NORMAL" : 19,
                        "TEXCOORD_0" : 20
                    },
                    "indices" : 21,
                    "material" : 3
                },
                {
                    "attributes" : {
                        "POSITION" : 22,
                        "NORMAL" : 23,
                        "TEXCOORD_0" : 24
                    },
                    "indices" : 25,
                    "material" : 4
                },
                {
                    "attributes" : {
                        "POSITION" : 26,
                        "NORMAL" : 27,
                        "TEXCOORD_0" : 28
                    },
                    "indices" : 29,
                    "material" : 5
                }
            ]
        },
        {
            "name" : "cilindroConcreto",
            "primitives" : [
                {
                    "attributes" : {
                        "POSITION" : 30,
                        "NORMAL" : 31,
                        "TEXCOORD_0" : 32
                    },
                    "indices" : 33,
                    "material" : 6
                }
            ]
        }
    ],
    "accessors" : [
        {
            "bufferView" : 0,
            "componentType" : 5126,
            "count" : 163,
            "max" : [
                0.1550000011920929,
                0.043210219591856,
                0.1550000011920929
            ],
            "min" : [
                -0.1550000011920929,
                -0.01269999984651804,
                -0.1550000011920929
            ],
            "type" : "VEC3"
        },
        {
            "bufferView" : 1,
            "componentType" : 5126,
            "count" : 163,
            "type" : "VEC3"
        },
        {
            "bufferView" : 2,
            "componentType" : 5126,
            "count" : 163,
            "type" : "VEC2"
        },
        {
            "bufferView" : 3,
            "componentType" : 5123,
            "count" : 564,
            "type" : "SCALAR"
        },
        {
            "bufferView" : 4,
            "componentType" : 5126,
            "count" : 258,
            "max" : [
                0.1550000011920929,
                0.0701582282781601,
                0.1550000011920929
            ],
            "min" : [
                -0.1550000011920929,
                -0.01269999984651804,
                -0.1550000011920929
            ],
            "type" : "VEC3"
        },
        {
            "bufferView" : 5,
            "componentType" : 5126,
            "count" : 258,
            "type" : "VEC3"
        },
        {
            "bufferView" : 6,
            "componentType" : 5126,
            "count" : 258,
            "type" : "VEC2"
        },
        {
            "bufferView" : 7,
            "componentType" : 5123,
            "count" : 756,
            "type" : "SCALAR"
        },
        {
            "bufferView" : 8,
            "componentType" : 5126,
            "count" : 163,
            "max" : [
                0.1550000011920929,
                0.043210219591856,
                0.1550000011920929
            ],
            "min" : [
                -0.1550000011920929,
                -0.01269999984651804,
                -0.1550000011920929
            ],
            "type" : "VEC3"
        },
        {
            "bufferView" : 9,
            "componentType" : 5126,
            "count" : 163,
            "type" : "VEC3"
        },
        {
            "bufferView" : 10,
            "componentType" : 5126,
            "count" : 163,
            "type" : "VEC2"
        },
        {
            "bufferView" : 11,
            "componentType" : 5126,
            "count" : 163,
            "max" : [
                0.1550000011920929,
                0.043210219591856,
                0.1550000011920929
            ],
            "min" : [
                -0.1550000011920929,
                -0.01269999984651804,
                -0.1550000011920929
            ],
            "type" : "VEC3"
        },
        {
            "bufferView" : 12,
            "componentType" : 5126,
            "count" : 163,
            "type" : "VEC3"
        },
        {
            "bufferView" : 13,
            "componentType" : 5126,
            "count" : 163,
            "type" : "VEC2"
        },
        {
            "bufferView" : 14,
            "componentType" : 5126,
            "count" : 2433,
            "max" : [
                0.01654193177819252,
                -0.037724170833826065,
                0.006936686113476753
            ],
            "min" : [
                -0.006936685647815466,
                -0.191902756690979,
                -0.24888662993907928
            ],
            "type" : "VEC3"
        },
        {
            "bufferView" : 15,
            "componentType" : 5126,
            "count" : 2433,
            "type" : "VEC3"
        },
        {
            "bufferView" : 16,
            "componentType" : 5126,
            "count" : 2433,
            "type" : "VEC2"
        },
        {
            "bufferView" : 17,
            "componentType" : 5123,
            "count" : 4764,
            "type" : "SCALAR"
        },
        {
            "bufferView" : 18,
            "componentType" : 5126,
            "count" : 2522,
            "max" : [
                0.01654193177819252,
                -0.037724170833826065,
                0.006936686113476753
            ],
            "min" : [
                -0.006936685647815466,
                -0.4338056445121765,
                -0.24888662993907928
            ],
            "type" : "VEC3"
        },
        {
            "bufferView" : 19,
            "componentType" : 5126,
            "count" : 2522,
            "type" : "VEC3"
        },
        {
            "bufferView" : 20,
            "componentType" : 5126,
            "count" : 2522,
            "type" : "VEC2"
        },
        {
            "bufferView" : 21,
            "componentType" : 5123,
            "count" : 4200,
            "type" : "SCALAR"
        },
        {
            "bufferView" : 22,
            "componentType" : 5126,
            "count" : 3206,
            "max" : [
                0.10612383484840393,
                0.0144007857888937,
                0.00847017765045166
            ],
            "min" : [
                -0.10321053117513657,
                -0.4846165180206299,
                -0.25042012333869934
            ],
            "type" : "VEC3"
        },
        {
            "bufferView" : 23,
            "componentType" : 5126,
            "count" : 3206,
            "type" : "VEC3"
        },
        {
            "bufferView" : 24,
            "componentType" : 5126,
            "count" : 3206,
            "type" : "VEC2"
        },
        {
            "bufferView" : 25,
            "componentType" : 5123,
            "count" : 8814,
            "type" : "SCALAR"
        },
        {
            "bufferView" : 26,
            "componentType" : 5126,
            "count" : 2484,
            "max" : [
                0.07413211464881897,
                0.011683626100420952,
                -0.014840453863143921
            ],
            "min" : [
                -0.11320888996124268,
                -0.48401880264282227,
                -0.22892755270004272
            ],
            "type" : "VEC3"
        },
        {
            "bufferView" : 27,
            "componentType" : 5126,
            "count" : 2484,
            "type" : "VEC3"
        },
        {
            "bufferView" : 28,
            "componentType" : 5126,
            "count" : 2484,
            "type" : "VEC2"
        },
        {
            "bufferView" : 29,
            "componentType" : 5123,
            "count" : 3978,
            "type" : "SCALAR"
        },
        {
            "bufferView" : 30,
            "componentType" : 5126,
            "count" : 130,
            "max" : [
                0.07500000298023224,
                0.15000000596046448,
                0.07500000298023224
            ],
            "min" : [
                -0.07500000298023224,
                -0.15000000596046448,
                -0.07500000298023224
            ],
            "type" : "VEC3"
        },
        {
            "bufferView" : 31,
            "componentType" : 5126,
            "count" : 130,
            "type" : "VEC3"
        },
        {
            "bufferView" : 32,
            "componentType" : 5126,
            "count" : 130,
            "type" : "VEC2"
        },
        {
            "bufferView" : 33,
            "componentType" : 5123,
            "count" : 372,
            "type" : "SCALAR"
        }
    ],
    "bufferViews" : [
        {
            "buffer" : 0,
            "byteLength" : 1956,
            "byteOffset" : 0,
            "target" : 34962
        },
        {
            "buffer" : 0,
            "byteLength" : 1956,
            "byteOffset" : 1956,
            "target" : 34962
        },
        {
            "buffer" : 0,
            "byteLength" : 1304,
            "byteOffset" : 3912,
            "target" : 34962
        },
        {
            "buffer" : 0,
            "byteLength" : 1128,
            "byteOffset" : 5216,
            "target" : 34963
        },
        {
            "buffer" : 0,
            "byteLength" : 3096,
            "byteOffset" : 6344,
            "target" : 34962
        },
        {
            "buffer" : 0,
            "byteLength" : 3096,
            "byteOffset" : 9440,
            "target" : 34962
        },
        {
            "buffer" : 0,
            "byteLength" : 2064,
            "byteOffset" : 12536,
            "target" : 34962
        },
        {
            "buffer" : 0,
            "byteLength" : 1512,
            "byteOffset" : 14600,
            "target" : 34963
        },
        {
            "buffer" : 0,
            "byteLength" : 1956,
            "byteOffset" : 16112,
            "target" : 34962
        },
        {
            "buffer" : 0,
            "byteLength" : 1956,
            "byteOffset" : 18068,
            "target" : 34962
        },
        {
            "buffer" : 0,
            "byteLength" : 1304,
            "byteOffset" : 20024,
            "target" : 34962
        },
        {
            "buffer" : 0,
            "byteLength" : 1956,
            "byteOffset" : 21328,
            "target" : 34962
        },
        {
            "buffer" : 0,
            "byteLength" : 1956,
            "byteOffset" : 23284,
            "target" : 34962
        },
        {
            "buffer" : 0,
            "byteLength" : 1304,
            "byteOffset" : 25240,
            "target" : 34962
        },
        {
            "buffer" : 0,
            "byteLength" : 29196,
            "byteOffset" : 26544,
            "target" : 34962
        },
        {
            "buffer" : 0,
            "byteLength" : 29196,
            "byteOffset" : 55740,
            "target" : 34962
        },
        {
            "buffer" : 0,
            "byteLength" : 19464,
            "byteOffset" : 84936,
            "target" : 34962
        },
        {
            "buffer" : 0,
            "byteLength" : 9528,
            "byteOffset" : 104400,
            "target" : 34963
        },
        {
            "buffer" : 0,
            "byteLength" : 30264,
            "byteOffset" : 113928,
            "target" : 34962
        },
        {
            "buffer" : 0,
            "byteLength" : 30264,
            "byteOffset" : 144192,
            "target" : 34962
        },
        {
            "buffer" : 0,
            "byteLength" : 20176,
            "byteOffset" : 174456,
            "target" : 34962
        },
        {
            "buffer" : 0,
            "byteLength" : 8400,
            "byteOffset" : 194632,
            "target" : 34963
        },
        {
            "buffer" : 0,
            "byteLength" : 38472,
            "byteOffset" : 203032,
            "target" : 34962
        },
        {
            "buffer" : 0,
            "byteLength" : 38472,
            "byteOffset" : 241504,
            "target" : 34962
        },
        {
            "buffer" : 0,
            "byteLength" : 25648,
            "byteOffset" : 279976,
            "target" : 34962
        },
        {
            "buffer" : 0,
            "byteLength" : 17628,
            "byteOffset" : 305624,
            "target" : 34963
        },
        {
            "buffer" : 0,
            "byteLength" : 29808,
            "byteOffset" : 323252,
            "target" : 34962
        },
        {
            "buffer" : 0,
            "byteLength" : 29808,
            "byteOffset" : 353060,
            "target" : 34962
        },
        {
            "buffer" : 0,
            "byteLength" : 19872,
            "byteOffset" : 382868,
            "target" : 34962
        },
        {
            "buffer" : 0,
            "byteLength" : 7956,
            "byteOffset" : 402740,
            "target" : 34963
        },
        {
            "buffer" : 0,
            "byteLength" : 1560,
            "byteOffset" : 410696,
            "target" : 34962
        },
        {
            "buffer" : 0,
            "byteLength" : 1560,
            "byteOffset" : 412256,
            "target" : 34962
        },
        {
            "buffer" : 0,
            "byteLength" : 1040,
            "byteOffset" : 413816,
            "target" : 34962
        },
        {
            "buffer" : 0,
            "byteLength" : 744,
            "byteOffset" : 414856,
            "target" : 34963
        }
    ],
    "buffers" : [
        {
            "byteLength" : 415600,
            "uri" : "data:application/octet-stream;base64,"
        }
    ]
}
